HIERARCHY
ROOT pelvis
{
  OFFSET 0 100 0
  CHANNELS 6 Xposition Yposition Zposition Zrotation Xrotation Yrotation
  JOINT pelvis_right_femur
  {
    OFFSET -10.78128 -3.44521 -0.5502486
    CHANNELS 3 Zrotation Xrotation Yrotation
    JOINT right_femur_tibia
    {
      OFFSET -0.8047443 -44.0398 -0.1307829
      CHANNELS 3 Zrotation Xrotation Yrotation
      JOINT right_tibia_foot
      {
        OFFSET 3.006224 -47.83518 -5
        CHANNELS 3 Zrotation Xrotation Yrotation
        End Site
        {
          OFFSET 0 -5 15
        }
      }
    }
  }
  JOINT pelvis_left_femur
  {
    OFFSET 10.78128 -3.44521 -0.5502486
    CHANNELS 3 Zrotation Xrotation Yrotation
    JOINT left_femur_tibia
    {
      OFFSET 0.8047443 -44.0398 -0.1307829
      CHANNELS 3 Zrotation Xrotation Yrotation
      JOINT left_tibia_foot
      {
        OFFSET -4.370144 -48.10324 -4.275266
        CHANNELS 3 Zrotation Xrotation Yrotation
        End Site
        {
          OFFSET 0 -5 15
        }
      }
    }
  }
  JOINT pelvis_spine1
  {
    OFFSET 0 6.468898 -3.129235
    CHANNELS 3 Zrotation Xrotation Yrotation
    JOINT spine1
    {
      OFFSET 0 23.15396 4.99043
      CHANNELS 3 Zrotation Xrotation Yrotation
      JOINT spine2
      {
        OFFSET 0 20.79997 -5.064912
        CHANNELS 3 Zrotation Xrotation Yrotation
        JOINT neck
        {
          OFFSET 0 14.38658 9.616178
          CHANNELS 3 Zrotation Xrotation Yrotation
          End Site
          {
            OFFSET 0 20 0
          }
        }
      }
      JOINT right_manubrium
      {
        OFFSET -5.722621 16.35077 3.967754
        CHANNELS 3 Zrotation Xrotation Yrotation
        JOINT right_clavicle
        {
          OFFSET -13.16364 1.694482 -4.693211
          CHANNELS 3 Zrotation Xrotation Yrotation
          JOINT right_humerus
          {
            OFFSET -28.5034 -0.3100689 -2.792744
            CHANNELS 3 Zrotation Xrotation Yrotation
            JOINT right_radius
            {
              OFFSET -25.15693 0.02248979 -1.271978
              CHANNELS 3 Zrotation Xrotation Yrotation
              End Site
              {
                OFFSET -15 0 0
              }
            }
          }
        }
      }
      JOINT left_manubrium
      {
        OFFSET 5.722621 16.35077 3.967754
        CHANNELS 3 Zrotation Xrotation Yrotation
        JOINT left_clavicle
        {
          OFFSET 13.16364 1.694482 -4.693211
          CHANNELS 3 Zrotation Xrotation Yrotation
          JOINT left_humerus
          {
            OFFSET 29.39168 -1.063119 -2.237045
            CHANNELS 3 Zrotation Xrotation Yrotation
            JOINT left_radius
            {
              OFFSET 24.59957 -0.9528479 0.9047498
              CHANNELS 3 Zrotation Xrotation Yrotation
              End Site
              {
                OFFSET 15 -0 -0
              }
            }
          }
        }
      }
    }
  }
}
MOTION
Frames: 9
Frame Time: 0.0416666666667
0 103.5113 0 2.024709 -0.1872297 -0.1322269 2.56197 -15.90845 10.75441 -0 38.83503 -0 -4.585173 -20.39386 -3.265663 -8.494758 9.186664 -24.00901 -0 4.425515 -0 16.27 -12.03929 30.69361 -4.405526 -3.936719 5.859871 2.425888 9.460051 -7.364554 1.524769 22.18143 6.637904 2.758874 -24.31487 10.08372 6.713197 -20.29503 11.17801 84.99855 40.07694 -17.33723 -0 0 16.9849 -5.355735 7.599092 3.31243 5.428697 -18.25568 -1.478286 -91.36002 21.03591 19.63151 0 0 -14.77448 16.25407 13.44726 -4.399367
0.3081255 104.0016 1.424416 1.602209 0.3285072 -0.2473432 3.448581 -18.30262 10.52899 -0 37.29205 -0 -4.605426 -19.04855 -3.0543 -8.191726 9.617396 -23.47385 -0 4.987074 -0 16.01006 -12.73364 30.14461 -4.153705 -3.696273 5.689042 2.539377 9.573558 -7.454558 1.594668 21.9482 6.620735 2.789228 -24.65747 10.14168 6.625891 -20.13819 11.21297 85.21725 39.9107 -17.65959 -0 0 16.61119 -5.240557 7.839493 3.314757 5.740342 -18.63366 -1.412068 -91.16101 21.03473 19.30468 0 0 -15.85753 16.61456 13.3418 -4.730357
0.6463799 104.3161 3.549108 0.1509867 -0.5975896 -0.1642479 3.807832 -21.18813 7.114878 -0 36.13644 -0 -6.994048 -11.25855 -1.942383 -6.307366 10.2603 -20.92788 -0 5.246775 -0 10.27952 -16.17902 25.46107 -3.153253 -2.874152 3.983126 2.567339 10.36327 -7.578475 1.326761 21.9227 6.853992 3.275719 -24.73261 9.383499 6.151837 -19.74478 11.84177 85.56136 35.61647 -17.9294 -0 0 15.05676 -9.801039 8.92312 5.775299 6.156224 -20.34825 -2.404113 -91.41256 21.47095 19.54388 0 0 -15.73416 13.65455 15.97048 -1.904463
0.9577182 104.6047 5.957506 -0.2856816 0.2043807 -0.05097919 4.784731 -24.17336 7.038955 -0 33.04603 -0 -6.842547 -10.21552 -1.827175 -6.065008 10.94479 -20.22966 -0 5.939744 -0 9.906894 -17.07005 24.74533 -2.875211 -2.646127 3.906765 2.790743 10.34862 -7.738159 1.443637 21.63849 6.762438 3.175105 -25.23856 9.5112 5.881817 -19.57313 11.78133 85.97952 35.18413 -18.60787 -0 0 14.49659 -9.311766 8.939904 5.655378 6.437493 -20.75453 -2.282466 -91.21893 21.82847 19.2307 0 0 -17.29006 13.74563 15.68668 -1.729989
1.253587 104.7968 8.673117 -0.6647189 0.9127035 0.1266757 5.597152 -26.79733 6.85183 -0 29.82565 -0 -6.791025 -8.937221 -1.692625 -5.841497 11.61384 -19.45206 -0 6.679775 -0 9.254847 -18.0099 23.84398 -2.638316 -2.409251 3.798734 3.009771 10.32385 -7.884004 1.527344 21.37611 6.693386 3.095355 -25.67922 9.584151 5.586871 -19.37727 11.73013 86.42794 34.658 -19.30069 -0 0 13.84899 -9.023015 8.892756 5.65548 6.631703 -21.14564 -2.232895 -91.02529 22.24984 18.98149 0 0 -18.74044 13.44583 15.37784 -1.160145
1.569465 104.7926 11.869 -0.7883544 1.242151 0.3696326 5.821127 -29.25362 5.593949 -0 25.70006 -0 -6.90487 -6.303029 -1.104819 -5.753438 12.02771 -17.90165 -0 7.385634 -0 8.938215 -18.62822 22.58578 -2.51858 -2.001635 3.639656 3.087912 10.63246 -7.989402 1.419013 21.08116 6.827521 3.231362 -25.61237 9.405315 5.207035 -19.13412 11.83604 87.07409 34.27367 -19.90331 -0 0 12.80885 -10.04566 9.125895 6.164386 6.957111 -21.95498 -2.615589 -89.81675 21.01621 17.67346 0 0 -20.79373 14.12017 14.28368 -2.11196
1.926183 104.5172 15.63114 -0.6325062 1.323146 0.688071 5.522704 -31.29979 3.658671 -0 20.64394 -0 -6.978717 -3.231929 -0.3471606 -5.865151 12.46175 -16.01581 -0 7.797279 -0 8.783598 -19.20904 21.18694 -2.538941 -1.585409 3.526137 3.076582 11.0471 -8.052937 1.211484 20.80906 7.033763 3.423109 -25.24321 9.073239 4.650278 -18.91813 11.98633 87.96248 33.71437 -20.60522 -0 0 11.52217 -11.67133 9.316522 6.932223 7.305104 -22.96843 -3.249323 -88.14104 19.15452 15.86856 0 0 -23.50729 14.81983 12.72841 -3.338955
2.347188 103.8394 20.08753 -0.04613712 1.055644 1.107877 4.491076 -32.77989 0.6743417 -0 14.16772 -0 -6.954924 0.3818137 0.6299619 -6.288212 13.08048 -13.71494 -0 7.562637 -0 8.788141 -19.88366 19.58364 -2.736128 -1.218793 3.506761 2.884967 11.5469 -8.031624 0.8804072 20.6005 7.309542 3.688759 -24.43789 8.497751 3.734746 -18.77465 12.14811 89.28001 32.69311 -21.52396 -0 0 9.899486 -14.05793 9.312637 7.982478 7.734943 -24.31715 -4.232409 -85.88143 16.56666 13.37901 0 0 -27.48341 15.35876 10.64965 -4.733008
2.843768 102.6712 25.32533 0.92858 0.4425227 1.674051 2.854917 -33.28617 -3.091152 -0 6.886693 -0 -6.867611 4.051417 1.579145 -6.990435 14.14741 -11.2912 -0 6.395298 -0 8.46714 -20.87915 17.75293 -3.010894 -1.118417 3.600497 2.462163 11.9147 -7.909803 0.5067306 20.56344 7.512481 3.926853 -23.3268 7.686592 2.296261 -18.79017 12.17847 91.07185 30.62776 -22.72723 -0 0 8.096554 -16.84156 8.815318 9.092411 8.175117 -25.91132 -5.442875 -83.46476 14.09485 10.63047 0 0 -32.60371 14.9859 8.720434 -5.249769
